# xmcd CD database file
#
# Track frame offsets:
#	150
#	21368
#	39965
#	65152
#	81945
#	100925
#	126027
#	153682
#	177693
#	201616
#	224309
#	243776
#	273674
#
# Disc length: 3892 seconds
#
# Revision: 0
# Processed by: cddbd v1.5.1PL0 Copyright (c) Steve Scherf et al.
# Submitted via: CDex 1.51
#
DISCID=c60f320d
DTITLE=MONET - essence
DYEAR=1900
DGENRE=Jazz
TTITLE0=Spirit
TTITLE1=Essence
TTITLE2=U Told Me
TTITLE3=Joy
TTITLE4=Wanna Kiss You
TTITLE5=Divided Dreams
TTITLE6=Bahia Blues
TTITLE7=Near You
TTITLE8=Vibacious
TTITLE9=Beauty
TTITLE10=Stand
TTITLE11=Play On
TTITLE12=Minute By Minute
EXTD=
EXTT0=
EXTT1=
EXTT2=
EXTT3=
EXTT4=
EXTT5=
EXTT6=
EXTT7=
EXTT8=
EXTT9=
EXTT10=
EXTT11=
EXTT12=
PLAYORDER=
